<svg fill="#000000" xmlns="http://www.w3.org/2000/svg" viewBox="0 0 24 24" width="24px" height="24px"><path d="M15.736 16.573c-.171 0-.257-.086-.428-.171-1.283-.77-2.908-1.197-4.618-1.197-.941 0-1.967.171-2.822.342-.171 0-.342.086-.428.086-.342 0-.599-.257-.599-.599s.171-.599.513-.599c1.112-.257 2.224-.428 3.421-.428 1.967 0 3.763.513 5.303 1.368.171.171.342.257.342.599C16.249 16.402 15.992 16.573 15.736 16.573zM16.677 14.158c-.171 0-.342-.086-.513-.171-1.454-.941-3.507-1.454-5.73-1.454-1.112 0-2.138.171-2.908.342-.171.086-.257.086-.428.086-.428 0-.684-.342-.684-.684 0-.428.171-.599.599-.77 1.026-.257 2.053-.513 3.507-.513 2.395 0 4.618.599 6.5 1.711.257.171.428.428.428.684C17.361 13.816 17.104 14.158 16.677 14.158zM17.788 11.421c-.171 0-.257-.086-.513-.171-1.711-.941-4.191-1.539-6.586-1.539-1.197 0-2.48.171-3.592.428-.171 0-.257.086-.513.086-.513.086-.855-.342-.855-.855 0-.513.257-.77.599-.855C7.696 8.171 9.15 8 10.69 8c2.651 0 5.388.599 7.526 1.711.257.171.513.428.513.855C18.644 11.079 18.302 11.421 17.788 11.421z"/><path fill="none" stroke="#000000" stroke-miterlimit="10" stroke-width="2" d="M12 3A9 9 0 1 0 12 21A9 9 0 1 0 12 3Z"/></svg>